<?xml version="1.0" encoding="utf-8"?>
<!-- Generator: Adobe Illustrator 21.0.0, SVG Export Plug-In . SVG Version: 6.00 Build 0)  -->
<svg version="1.1" id="Слой_1" xmlns="http://www.w3.org/2000/svg" xmlns:xlink="http://www.w3.org/1999/xlink" x="0px" y="0px"
	 viewBox="0 0 100 100" style="enable-background:new 0 0 100 100;" xml:space="preserve">
<style type="text/css">
	.st0{fill:#893B67;}
</style>
<g id="_x37_7_Essential_Icons">
	<path id="Right_Arrow" class="st0" d="M61.4,51.8L45.3,67.9c-0.8,0.8-2,0.8-2.8,0s-0.8-2,0-2.8l14.7-14.7L41.7,34.9
		c-0.8-0.8-0.8-2,0-2.8s2-0.8,2.8,0L61.4,49C62.2,49.8,62.2,51,61.4,51.8z M88,50c0,21-17,38-38,38S12,71,12,50s17-38,38-38
		S88,29,88,50z M84,50c0-18.8-15.2-34-34-34S16,31.2,16,50s15.2,34,34,34S84,68.8,84,50z"/>
</g>
<g id="Guides">
</g>
</svg>
